<?xml version="1.0" standalone="no"?>
<!DOCTYPE svg PUBLIC "-//W3C//DTD SVG 20010904//EN"
 "http://www.w3.org/TR/2001/REC-SVG-20010904/DTD/svg10.dtd">
<svg version="1.0" xmlns="http://www.w3.org/2000/svg"
 width="1599.000000pt" height="601.000000pt" viewBox="0 0 1599.000000 601.000000"
 preserveAspectRatio="xMidYMid meet">

<g transform="translate(0.000000,601.000000) scale(0.100000,-0.100000)" stroke="none" fill-opacity=".09">
<path d="M13165 5989 c-742 -76 -1325 -421 -1656 -981 -29 -48 -54 -86 -56
-84 -4 3 189 950 203 999 5 16 -25 17 -541 17 -427 0 -547 -3 -550 -12 -3 -7
-192 -913 -420 -2013 -228 -1100 -417 -2008 -419 -2017 -4 -17 27 -18 543 -18
l547 0 154 745 c85 410 158 745 161 745 3 0 9 -42 12 -92 19 -289 126 -593
289 -822 78 -111 240 -266 357 -344 259 -173 570 -267 967 -294 279 -18 625
10 884 73 47 12 86 23 88 24 2 2 -110 166 -249 365 -252 360 -253 362 -283
355 -200 -41 -389 -21 -556 58 -98 47 -223 176 -277 287 -86 173 -119 364
-110 638 15 505 196 994 471 1276 131 133 271 220 443 273 81 25 101 27 263
27 164 0 180 -2 255 -27 227 -76 375 -240 449 -499 36 -126 49 -234 49 -408 0
-215 -24 -389 -83 -607 l-22 -83 -545 0 c-425 0 -544 -3 -541 -12 3 -7 276
-403 609 -880 l604 -867 548 -1 c384 0 546 3 542 11 -4 5 -116 166 -249 357
-133 191 -250 359 -260 374 l-18 27 67 93 c243 338 391 756 447 1263 20 186
17 625 -6 750 -80 436 -280 771 -593 994 -106 76 -313 179 -442 221 -113 36
-299 75 -433 89 -111 13 -524 12 -643 0z"/>
<path d="M876 5913 c-6 -19 -866 -4020 -866 -4028 0 -3 242 -5 538 -5 l537 0
150 708 150 707 395 6 c442 7 541 17 771 75 314 78 573 219 775 419 102 101
156 169 209 259 16 27 30 45 31 40 2 -5 -104 -504 -234 -1109 l-237 -1100
1459 -3 c993 -1 1462 1 1466 8 4 6 39 171 79 368 40 196 74 365 77 375 5 16
-43 17 -920 17 -509 0 -926 3 -926 7 0 14 192 898 197 906 2 4 381 7 843 7
l838 0 5 23 c20 77 157 711 157 723 0 12 -121 14 -840 14 -462 0 -840 3 -840
8 0 4 41 193 92 420 l91 412 1290 0 1289 0 -5 -22 c-4 -13 -159 -745 -346
-1628 -188 -883 -343 -1613 -345 -1623 -4 -16 27 -17 543 -17 l546 0 350 1645
349 1645 511 0 510 0 73 358 c40 196 75 367 78 380 l6 22 -2879 0 -2879 0
-109 -507 c-59 -280 -111 -512 -115 -516 -4 -4 -10 28 -14 72 -3 44 -17 123
-31 177 -96 377 -381 612 -860 709 -269 55 -330 58 -1172 62 -749 4 -781 4
-787 -14z m1393 -754 c257 -41 377 -175 389 -430 15 -344 -166 -560 -535 -639
-77 -17 -149 -22 -335 -27 -131 -3 -238 -3 -238 1 0 3 52 252 115 552 63 300
115 548 115 550 0 9 430 3 489 -7z" fill="#E95929"/>
<path d="M15720 2184 c-102 -44 -147 -159 -101 -259 50 -110 190 -147 288 -76
52 37 77 91 77 163 1 47 -4 64 -29 100 -54 77 -153 108 -235 72z m159 -41 c33
-24 71 -98 71 -138 0 -88 -90 -172 -174 -161 -92 11 -156 113 -132 210 8 34
54 86 91 102 39 18 110 12 144 -13z"/>
<path d="M15720 2005 c0 -108 1 -115 20 -115 17 0 20 7 20 50 0 36 4 50 14 50
8 0 28 -22 45 -50 21 -35 37 -50 52 -50 23 0 23 1 -27 74 -11 16 -10 21 12 38
17 14 24 29 24 53 0 51 -21 65 -96 65 l-64 0 0 -115z m120 66 c13 -26 -11 -51
-51 -51 -27 0 -29 3 -29 35 0 33 2 35 35 35 24 0 37 -6 45 -19z"/>
<path d="M12600 545 l0 -525 90 0 90 0 0 525 0 525 -90 0 -90 0 0 -525z"/>
<path d="M13560 545 l0 -525 85 0 85 0 0 223 c0 254 9 308 61 351 85 71 209
52 255 -40 17 -35 19 -67 22 -286 l4 -248 84 0 85 0 -3 293 c-3 272 -4 295
-24 337 -46 97 -124 144 -244 144 -64 0 -83 -4 -128 -29 -30 -16 -64 -42 -77
-57 -13 -15 -26 -28 -29 -28 -3 0 -6 88 -6 195 l0 195 -85 0 -85 0 0 -525z"/>
<path d="M1313 1021 c-136 -47 -203 -139 -203 -281 0 -136 71 -216 236 -265
46 -14 122 -36 168 -50 99 -29 143 -62 152 -111 19 -103 -92 -170 -238 -144
-75 13 -155 48 -208 90 -21 16 -42 30 -46 30 -5 0 -31 -28 -59 -61 l-49 -62
34 -28 c52 -44 160 -97 231 -114 83 -19 231 -19 296 0 157 47 246 191 214 347
-10 44 -22 68 -56 106 -53 58 -115 89 -273 132 -177 48 -224 78 -226 148 -3
139 205 168 389 54 l48 -30 48 66 47 67 -21 17 c-41 33 -134 77 -192 93 -81
21 -226 19 -292 -4z"/>
<path d="M7180 525 l0 -505 85 0 85 0 0 160 0 160 103 0 c269 1 399 56 469
198 30 60 33 75 33 152 -1 136 -53 230 -162 287 -83 44 -148 53 -395 53 l-218
0 0 -505z m451 334 c171 -37 199 -254 42 -330 -41 -20 -63 -22 -182 -23 l-136
-1 -3 170 c-1 93 0 175 2 182 7 17 202 18 277 2z"/>
<path d="M9890 525 l0 -505 90 0 90 0 0 215 0 215 238 -2 237 -3 3 -212 2
-213 90 0 90 0 0 505 0 505 -90 0 -90 0 0 -210 0 -210 -240 0 -240 0 0 210 0
210 -90 0 -90 0 0 -505z"/>
<path d="M4800 885 l0 -105 -45 0 -45 0 0 -75 0 -75 44 0 44 0 4 -242 c3 -228
4 -245 25 -284 33 -62 80 -87 173 -92 56 -3 92 0 129 13 l51 17 0 72 0 73 -52
-14 c-62 -16 -121 -5 -138 27 -6 11 -10 104 -10 224 l0 206 100 0 100 0 0 75
0 75 -100 0 -100 0 0 105 0 105 -90 0 -90 0 0 -105z"/>
<path d="M8920 885 l0 -105 -50 0 -50 0 0 -75 0 -75 50 0 50 0 0 -222 c0 -130
5 -240 11 -263 27 -99 96 -140 226 -133 43 2 92 10 108 18 29 15 30 18 33 89
3 67 1 73 -15 66 -74 -31 -152 -24 -173 15 -6 11 -10 107 -10 224 l0 206 100
0 100 0 0 75 0 75 -100 0 -100 0 0 105 0 105 -90 0 -90 0 0 -105z"/>
<path d="M13020 885 l0 -105 -45 0 -45 0 0 -75 0 -75 44 0 44 0 4 -242 c3
-238 4 -244 28 -287 36 -64 92 -91 185 -91 39 0 92 7 118 16 l47 16 0 72 0 73
-52 -14 c-62 -16 -121 -5 -138 27 -6 11 -10 104 -10 224 l0 206 100 0 100 0 0
75 0 75 -100 0 -100 0 0 105 0 105 -90 0 -90 0 0 -105z"/>
<path d="M2348 787 c-51 -15 -64 -23 -120 -76 l-38 -35 0 52 0 52 -85 0 -85 0
0 -380 0 -380 85 0 85 0 0 228 c0 251 6 291 53 339 57 60 147 67 207 16 51
-42 60 -97 60 -355 l0 -228 84 0 85 0 3 248 c3 286 9 307 89 350 77 41 159 18
204 -59 18 -31 20 -55 23 -286 l4 -253 84 0 84 0 0 278 c0 308 -6 348 -60 414
-48 58 -110 83 -205 82 -95 -1 -157 -26 -219 -88 -24 -24 -41 -35 -44 -28 -9
28 -55 72 -95 91 -55 27 -140 34 -199 18z"/>
<path d="M4530 789 c-59 -12 -117 -53 -157 -113 l-33 -48 0 76 0 76 -90 0 -90
0 0 -380 0 -380 90 0 90 0 0 184 c0 142 4 195 16 234 31 96 105 157 205 169
l49 6 0 93 c0 105 5 100 -80 83z"/>
<path d="M5571 790 c-112 -24 -195 -89 -248 -198 -38 -75 -38 -77 -38 -197 0
-111 2 -124 28 -177 76 -155 248 -239 425 -208 77 13 165 57 211 104 l32 33
-54 46 c-53 46 -55 46 -72 27 -10 -11 -40 -31 -68 -45 -93 -46 -214 -28 -279
41 -21 23 -58 99 -58 120 0 2 126 4 280 4 l280 0 0 63 c-1 79 -14 135 -47 204
-34 68 -117 146 -179 167 -60 20 -157 27 -213 16z m152 -154 c18 -7 43 -25 56
-39 24 -27 63 -125 55 -139 -3 -5 -91 -8 -195 -8 l-191 0 7 33 c11 53 58 120
100 144 46 26 119 30 168 9z"/>
<path d="M6543 790 c-76 -15 -134 -60 -182 -140 l-21 -35 0 83 0 82 -85 0 -85
0 0 -380 0 -380 84 0 84 0 4 193 c4 173 6 197 27 243 39 90 128 154 212 154
l29 0 0 95 c0 70 -3 95 -12 94 -7 -1 -32 -5 -55 -9z"/>
<path d="M8312 790 c-332 -70 -397 -577 -95 -738 150 -80 339 -59 468 52 l40
35 -45 45 c-24 25 -49 46 -55 46 -6 0 -29 -13 -51 -29 -113 -81 -266 -66 -336
35 -15 21 -31 54 -34 72 l-6 32 276 0 c248 0 277 2 283 16 11 30 -15 181 -41
236 -58 123 -160 194 -291 202 -38 3 -89 1 -113 -4z m174 -165 c44 -26 94
-106 94 -152 l0 -23 -190 0 c-184 0 -190 1 -190 20 0 32 28 92 58 124 58 61
154 74 228 31z"/>
<path d="M11171 789 c-107 -21 -205 -99 -257 -204 -27 -57 -29 -67 -29 -185 0
-118 2 -128 29 -184 57 -116 157 -187 292 -208 121 -18 265 26 343 106 l31 32
-54 47 c-53 45 -54 46 -71 27 -35 -38 -115 -70 -177 -70 -114 0 -198 62 -222
162 l-6 28 280 0 280 0 0 55 c0 268 -194 442 -439 394z m184 -173 c37 -28 70
-87 77 -136 l3 -25 -192 -3 c-220 -3 -212 -7 -169 83 40 86 91 118 182 113 49
-3 69 -10 99 -32z"/>
<path d="M3515 776 c-83 -19 -138 -43 -132 -58 2 -7 13 -39 23 -71 14 -45 21
-56 33 -51 43 19 152 43 197 43 113 2 194 -61 194 -150 0 -24 -4 -30 -16 -25
-8 3 -55 11 -103 18 -69 9 -105 9 -162 -1 -134 -22 -209 -83 -229 -189 -19
-104 21 -198 107 -249 45 -26 55 -28 158 -28 121 0 151 10 213 68 l32 31 0
-47 0 -47 86 0 85 0 -3 283 c-4 313 -6 321 -73 396 -55 60 -120 84 -245 87
-65 2 -128 -2 -165 -10z m277 -417 c47 -12 51 -19 42 -76 -10 -66 -59 -118
-131 -139 -116 -34 -216 15 -216 106 0 106 134 153 305 109z"/>
<path d="M11915 776 c-33 -8 -77 -21 -97 -30 l-37 -16 20 -57 c10 -32 21 -63
24 -70 3 -9 20 -6 62 9 42 16 82 22 149 22 82 1 94 -1 131 -26 40 -26 51 -46
68 -122 5 -26 4 -28 -17 -22 -59 16 -179 27 -236 22 -131 -13 -223 -72 -252
-161 -19 -59 -9 -165 20 -209 50 -74 125 -106 244 -106 87 0 140 18 203 66
l33 25 0 -40 0 -41 86 0 85 0 -3 288 c-3 272 -4 289 -25 327 -29 55 -78 100
-138 127 -63 28 -227 35 -320 14z m285 -420 c43 -14 50 -47 25 -113 -41 -108
-222 -148 -302 -68 -67 67 -31 162 72 191 53 14 144 10 205 -10z"/>
</g>
</svg>
